<svg width="32" height="32" viewBox="0 0 32 32" fill="none" xmlns="http://www.w3.org/2000/svg">
<circle cx="10.6667" cy="10.6667" r="3.5" stroke="#222222" stroke-linecap="round"/>
<path d="M15.5463 11.25C15.922 10.5992 16.5408 10.1243 17.2667 9.92986C17.9925 9.73537 18.7659 9.83718 19.4167 10.2129C20.0674 10.5886 20.5423 11.2075 20.7368 11.9333C20.9313 12.6592 20.8295 13.4325 20.4537 14.0833C20.078 14.7341 19.4592 15.2089 18.7333 15.4034C18.0075 15.5979 17.2341 15.4961 16.5833 15.1204C15.9326 14.7447 15.4577 14.1258 15.2632 13.4C15.0687 12.6741 15.1705 11.9008 15.5463 11.25L15.5463 11.25Z" stroke="#2A4157" stroke-opacity="0.24"/>
<path d="M10.6668 16.667L10.6668 16.167H10.6668V16.667ZM17.9217 23.6709L18.4176 23.6066V23.6066L17.9217 23.6709ZM3.41196 23.6709L2.91611 23.6066L2.91611 23.6066L3.41196 23.6709ZM10.6668 16.667L10.6668 17.167C13.3551 17.167 14.9516 18.2973 15.9273 19.6566C16.9221 21.0425 17.2915 22.6988 17.4259 23.7352L17.9217 23.6709L18.4176 23.6066C18.274 22.4991 17.8738 20.6535 16.7397 19.0735C15.5864 17.4668 13.6945 16.167 10.6668 16.167L10.6668 16.667ZM17.9217 23.6709L17.4259 23.7352C17.4536 23.949 17.2866 24.167 16.9998 24.167V24.667V25.167C17.8176 25.167 18.5319 24.4882 18.4176 23.6066L17.9217 23.6709ZM16.9998 24.667V24.167H4.33383V24.667V25.167H16.9998V24.667ZM4.33383 24.667V24.167C4.04705 24.167 3.88009 23.949 3.9078 23.7352L3.41196 23.6709L2.91611 23.6066C2.80178 24.4882 3.51605 25.167 4.33383 25.167V24.667ZM3.41196 23.6709L3.9078 23.7352C4.04222 22.6988 4.41155 21.0425 5.40636 19.6565C6.38208 18.2972 7.97858 17.167 10.6668 17.167V16.667V16.167C7.63913 16.167 5.74721 17.4668 4.59398 19.0734C3.45985 20.6535 3.05973 22.4991 2.91611 23.6066L3.41196 23.6709Z" fill="#222222"/>
<path d="M18.0005 18L18.0006 17.5H18.0005V18ZM23.146 23.5801L23.6344 23.4726L23.6343 23.4725L23.146 23.5801ZM17.9214 23.6709L18.4173 23.6066L18.4173 23.6066L17.9214 23.6709ZM15.733 18.6436L15.4648 18.2215L14.9502 18.5485L15.3716 18.9891L15.733 18.6436ZM18.0005 18L18.0005 18.5C19.5251 18.5001 20.5702 19.2982 21.3076 20.3658C22.0543 21.4469 22.4552 22.7689 22.6578 23.6877L23.146 23.5801L23.6343 23.4725C23.4204 22.502 22.9844 21.034 22.1304 19.7975C21.267 18.5475 19.9477 17.5002 18.0006 17.5L18.0005 18ZM23.146 23.5801L22.6577 23.6875C22.7088 23.9196 22.5354 24.167 22.2281 24.167V24.667V25.167C23.1037 25.167 23.8375 24.3958 23.6344 23.4726L23.146 23.5801ZM22.2281 24.667V24.167H16.9996V24.667V25.167H22.2281V24.667ZM16.9996 24.667V25.167C17.8173 25.167 18.5316 24.4882 18.4173 23.6066L17.9214 23.6709L17.4256 23.7352C17.4533 23.949 17.2863 24.167 16.9996 24.167V24.667ZM17.9214 23.6709L18.4173 23.6066C18.2502 22.3184 17.7315 20.01 16.0943 18.298L15.733 18.6436L15.3716 18.9891C16.787 20.4692 17.2677 22.518 17.4256 23.7352L17.9214 23.6709ZM15.733 18.6436L16.0011 19.0656C16.5478 18.7183 17.2029 18.5 18.0005 18.5V18V17.5C17.0073 17.5 16.167 17.7755 15.4648 18.2215L15.733 18.6436Z" fill="#2A4157" fill-opacity="0.24"/>
<rect x="16.25" y="5.25" width="4.5" height="0.5" rx="0.25" stroke="#222222" stroke-width="0.5" stroke-linecap="round"/>
<rect x="18.75" y="3.25" width="4.5" height="0.5" rx="0.25" transform="rotate(90 18.75 3.25)" stroke="#222222" stroke-width="0.5" stroke-linecap="round"/>
</svg>
